<svg width="1448" height="850" viewBox="0 0 1448 850" fill="none" xmlns="http://www.w3.org/2000/svg">
<g id="Group 27">
<path id="Vector" d="M99.9859 167.676C169.356 161.177 278.774 233.283 331.716 264.505C386.153 296.608 447.092 327.643 518.901 310.701C530.52 307.958 561.118 295.328 568.115 294.903C571.111 294.72 573.923 295.636 575.911 297.356C584.966 305.179 559.767 328.189 558.274 337.86C554.18 364.428 649.019 366.847 666.884 385.618C669.082 387.928 670.83 391.067 669.643 393.946C667.837 398.316 660.022 401.941 654.875 403.683C640.851 408.429 623.501 408.987 608.409 409.621C518.037 413.417 429.526 390.977 346.901 365.616C321.202 357.596 280.876 343.853 254.049 354.074C225.078 365.588 209.379 397.739 204.494 420.64C198.331 449.517 196.426 488.198 200.923 517.185C202.909 529.242 205.532 541.233 208.788 553.13C211.246 562.292 217.712 580.363 213.869 588.48C205.426 593.915 192.407 584.565 185.368 580.196C82.157 516.135 16.1177 418.132 2.06384 317.957C-3.61657 277.474 0.835858 224.662 35.7822 191.853C54.2017 175.321 72.2994 169.5 99.9859 167.676Z" fill="#09867E"/>
<path id="Vector_2" d="M1331.42 169.268C1400.98 163.355 1436.73 207.292 1444.68 254.254C1459.97 344.468 1415.63 438.981 1345.94 511.49C1322.53 535.856 1278.79 573.474 1242.84 587.573C1241.4 588.074 1237.13 586.621 1236.84 585.393C1233.37 570.501 1243.75 545.218 1245.55 530.229C1251.52 480.405 1258.29 406.46 1214.94 365.36C1185.16 339.577 1142 353.106 1108.57 366.677C1042.96 393.307 965.117 428.086 888.422 407.95C880.843 405.959 870.511 401.167 874.341 393.926C881.901 389.046 911.22 380.256 922.075 376.359C939.686 370.133 956.577 362.8 972.572 354.434C1044.17 316.326 1103.87 271.814 1172.76 231.479C1201 214.947 1236.67 194.749 1268.66 182.937C1288.3 175.504 1309.57 170.871 1331.42 169.268Z" fill="#09867E"/>
<path id="Vector_3" d="M1194.46 1.50974C1247.21 -4.65045 1296.61 22.6554 1305.03 62.6203C1313.44 102.585 1277.71 140.2 1225.05 146.803C1171.98 153.458 1121.9 126.101 1113.42 85.8209C1104.94 45.5429 1141.29 7.71969 1194.46 1.50974Z" fill="#09867E"/>
<path id="Vector_4" d="M227.286 0.44852C280.383 -3.99863 328.132 25.1294 333.778 65.409C339.425 105.69 300.818 141.778 247.675 145.894C194.84 149.987 147.587 120.918 141.972 80.8697C136.359 40.8228 174.498 4.87159 227.286 0.44852Z" fill="#09867E"/>
<path id="Vector_5" d="M607.188 151.599C616.345 150.73 638.397 150.279 643.434 156.934C640.764 171.219 568.1 177.978 558.753 192.551C554.154 199.718 571.096 208.283 567.298 215.806C558.188 219.852 526.639 210.967 509.295 216.993C461.273 233.67 422.357 256.768 371.953 270.028C356.752 262.609 335.703 249.349 321.103 240.561C292.788 223.742 266.232 207.981 237.122 191.949C340.835 211.057 430.1 188.797 528.265 166.337C552.78 160.727 582.008 153.841 607.188 151.599Z" fill="#09867E"/>
<path id="Vector_6" d="M719.737 170.76C727.122 170.166 734.124 170.002 741.204 171.983C751.123 174.758 812.214 225.433 816.823 233.465C820.369 239.644 821.081 247.883 817.359 254.106C815.466 257.272 812.517 260.096 809.396 262.615C801.181 269.244 743.755 308.379 735.36 310.826C720.707 313.289 707.811 312.398 697.628 303.436C681.526 289.268 648.682 264.164 636.511 249.563C616.91 226.049 693.192 190.47 709.734 175.026C710.964 173.878 718.205 171.286 719.737 170.76Z" fill="#09867E"/>
<path id="Vector_7" d="M725.712 212.993C737.524 212.264 765.503 237.518 762.623 244.783C759.706 252.136 736.667 266.725 727.368 271.113C717.25 270.819 687.668 247.634 690.48 239.76C693.222 232.084 717.174 216.874 725.712 212.993Z" fill="white"/>
<path id="Vector_8" d="M224.881 730.399C250.871 729.389 264.614 735.689 277.692 752.352C293.812 735.503 304.424 730.693 331.814 730.567C390.369 730.298 390.079 768.8 389.069 801.783C388.612 816.661 388.637 832.43 388.404 847.272L357.358 847.275C357.72 823.352 359.331 794.168 354.927 770.752C351.273 751.325 311.133 746.251 294.966 760.617C278.564 775.19 283.372 804.981 283.555 823.579L283.614 847.218C272.755 847.248 261.894 847.21 251.035 847.1C252.557 827.44 250.728 806.877 251.212 787.043C251.638 769.701 246.387 753.803 219.687 752.378C200.595 751.358 182.239 761.022 179.658 775.798C175.686 798.538 177.536 823.969 177.642 847.16C166.953 847.344 155.488 847.153 144.737 847.123C144.953 809.42 144.872 771.716 144.496 734.014C155.048 733.631 165.614 733.55 176.175 733.772L176.023 751.686C189.117 735.573 200.612 731.587 224.881 730.399Z" fill="#09867E"/>
<path id="Vector_9" fill-rule="evenodd" clip-rule="evenodd" d="M712.716 743.414C698.389 732.496 673.371 729.892 653.848 731.386C635.058 732.934 620.299 736.228 604.181 743.713C606.73 749.74 609.387 755.74 612.152 761.712C634.148 753.251 676.695 742.085 693.859 763.847C696.757 767.522 697.367 773.454 697.84 778.062C697.879 778.442 697.917 778.813 697.955 779.173C693.492 779.174 688.621 779.075 683.499 778.972C656.441 778.424 622.388 777.734 604.422 790.811C589.549 801.638 589.545 822.945 602.407 835.127C609.842 841.008 615.698 844.816 626.447 847.131C648.614 851.906 676.858 849.099 693.672 836.487C695.804 834.907 697.82 833.236 699.704 831.484L699.891 846.932C709.102 847.541 717.618 847.516 726.69 847.49C727.687 847.487 728.691 847.485 729.703 847.483L729.741 800.025C729.744 797.457 729.805 794.878 729.865 792.301C730.28 774.676 730.694 757.113 712.716 743.414ZM645.493 794.468C659.212 793.941 673.569 794.028 687.582 794.114C690.847 794.133 694.093 794.153 697.307 794.165C697.153 811.86 696.543 821.506 673.133 829.228C623.028 840.319 605.925 803.284 645.493 794.468Z" fill="#09867E"/>
<path id="Vector_10" fill-rule="evenodd" clip-rule="evenodd" d="M547.716 743.414C533.389 732.496 508.371 729.892 488.848 731.386C470.058 732.934 455.299 736.228 439.181 743.713C441.73 749.74 444.387 755.74 447.152 761.712C469.148 753.251 511.695 742.085 528.859 763.847C531.757 767.522 532.367 773.454 532.84 778.062C532.879 778.442 532.917 778.813 532.955 779.173C528.492 779.174 523.621 779.075 518.499 778.972C491.441 778.424 457.388 777.734 439.422 790.811C424.549 801.638 424.545 822.945 437.407 835.127C444.842 841.008 450.698 844.816 461.447 847.131C483.614 851.906 511.858 849.099 528.672 836.487C530.804 834.907 532.82 833.236 534.704 831.484L534.891 846.932C544.102 847.541 552.618 847.516 561.69 847.49C562.687 847.487 563.691 847.485 564.703 847.483L564.741 800.025C564.744 797.457 564.805 794.878 564.865 792.301C565.28 774.676 565.694 757.113 547.716 743.414ZM480.493 794.468C494.212 793.941 508.569 794.028 522.582 794.114C525.847 794.133 529.093 794.153 532.307 794.165C532.153 811.86 531.543 821.506 508.133 829.228C458.028 840.319 440.925 803.284 480.493 794.468Z" fill="#09867E"/>
<path id="Vector_11" d="M890.912 271.712C905.176 271.034 915.196 281.096 924.686 288.214C949.196 306.603 968.17 314.998 1002.14 319.447C966.345 343.235 917.375 365.815 870.74 373.129C845.886 376.918 799.437 378.379 778.769 363.65C766.932 355.217 780.414 344.786 793.113 341.789C823.711 334.269 864.43 338.626 890.891 322.998C912.518 310.227 870.469 284.952 890.912 271.712Z" fill="#09867E"/>
<path id="Vector_12" d="M873.009 734.109L905.631 734.154C904.53 756.12 903.179 783.132 906.956 804.92C912.457 836.652 978.905 833.849 983.812 803.263C987.28 781.637 985.815 756.469 985.349 734.291C995.491 733.992 1006.89 734.185 1017.12 734.188L1017.03 771.401L1017.06 847.255L987.064 847.23C987.126 841.481 986.743 835.228 986.531 829.439C974.338 841.072 961.467 848.823 940.85 849.005C870.979 849.615 872.499 810.666 872.81 772.451L873.009 734.109Z" fill="#09867E"/>
<path id="Vector_13" d="M1189.77 697.432C1199.35 697.169 1209.72 697.248 1219.36 697.179L1219.46 788.999C1241.99 772.152 1263.54 751.723 1285.75 734.844C1296.36 733.981 1307.76 734.181 1318.49 734.169C1304.68 747.028 1277.73 769.104 1261.97 780.608C1274.09 792.683 1286.96 807.516 1298.49 820.129L1322.79 847.216C1311.62 847.462 1300.62 847.242 1289.46 847.08C1273.87 831.625 1259.27 812.002 1243.61 795.756C1236.51 800.356 1226.08 809.221 1219.4 814.643L1219.4 847.263L1190.66 847.234L1189.77 697.432Z" fill="#09867E"/>
<path id="Vector_14" d="M832.541 731.099C837.631 730.808 842.577 730.195 846.796 732.094C852.295 736.935 849.684 747.052 849.333 754.235C832.198 753.932 817.888 753.457 804.3 763.428C798.863 767.405 794.982 772.445 793.09 777.991C790.301 786.105 791.783 835.169 791.686 847.369C784.104 847.444 767.097 847.894 760.542 846.948L759.483 845.747C758.3 809.264 758.833 770.728 759.096 734.189C769.449 733.995 780.147 734.104 790.528 734.109L790.557 752.41C792.486 750.215 794.468 748.048 796.5 745.908C806.059 735.989 817.363 732.802 832.541 731.099Z" fill="#09867E"/>
<path id="Vector_15" d="M1138.09 697.517L1151.83 697.545L1152.03 847.296L1139.11 847.312L1123.26 847.168C1124.49 830.229 1123.28 809.704 1123.15 792.356L1122.91 697.879L1138.09 697.517Z" fill="#09867E"/>
<path id="Vector_16" d="M1068.52 818.09C1079.44 816.319 1090.19 821.604 1092.53 829.891C1094.85 838.179 1087.88 846.328 1076.95 848.091C1066.03 849.851 1055.29 844.567 1052.96 836.284C1050.63 828.003 1057.6 819.859 1068.52 818.09Z" fill="#09867E"/>
</g>
</svg>
